<svg width="100" height="100" viewBox="0 0 100 100" fill="none" xmlns="http://www.w3.org/2000/svg">
<path fill-rule="evenodd" clip-rule="evenodd" d="M0 39.2239V100H99.8361L99.9933 39.2239C99.1441 39.2239 98.2633 39.2239 97.4141 39.2239C93.3564 102.422 6.22795 102.05 2.67362 39.2239H0Z" fill="#393185"/>
<path fill-rule="evenodd" clip-rule="evenodd" d="M51.1133 0C50.7358 0 50.3584 0 50.0123 0C27.8686 0 9.93958 17.7017 9.93958 39.5339C9.93958 39.8756 9.93958 40.2172 9.93958 40.5277L51.1133 0Z" fill="#E31E24"/>
<path fill-rule="evenodd" clip-rule="evenodd" d="M56.0191 0.432089L10.4101 45.5561L10.0956 42.8542L53.6286 0.152588L56.0191 0.432089Z" fill="#E31E24"/>
<path fill-rule="evenodd" clip-rule="evenodd" d="M60.5811 1.39751L11.3549 50.0928L10.7887 47.6395L58.4422 0.869568L60.5811 1.39751Z" fill="#E31E24"/>
<path fill-rule="evenodd" clip-rule="evenodd" d="M64.6714 2.70186L12.7403 54.0991L11.9225 51.863L62.6583 2.08075L64.6714 2.70186Z" fill="#E31E24"/>
<path fill-rule="evenodd" clip-rule="evenodd" d="M68.3197 4.40996L14.407 57.7016L13.4319 55.6519L66.5269 3.50934L68.3197 4.40996Z" fill="#E31E24"/>
<path fill-rule="evenodd" clip-rule="evenodd" d="M71.7166 6.27354L16.357 60.9937L15.1932 59.1305L69.9866 5.31082L71.7166 6.27354Z" fill="#E31E24"/>
<path fill-rule="evenodd" clip-rule="evenodd" d="M74.8617 8.5713L18.6528 64.1611L17.3317 62.453L73.3519 7.42224L74.8617 8.5713Z" fill="#E31E24"/>
<path fill-rule="evenodd" clip-rule="evenodd" d="M77.8511 11.1177L21.2648 67.0802L19.7864 65.4964L76.4672 9.87549L77.8511 11.1177Z" fill="#E31E24"/>
<path fill-rule="evenodd" clip-rule="evenodd" d="M80.3972 13.789L23.9366 69.5961L22.3323 68.1677L79.1075 12.3915L80.3972 13.789Z" fill="#E31E24"/>
<path fill-rule="evenodd" clip-rule="evenodd" d="M82.7259 16.7705L26.9574 71.8944L25.2274 70.59L81.625 15.2487L82.7259 16.7705Z" fill="#E31E24"/>
<path fill-rule="evenodd" clip-rule="evenodd" d="M84.8959 20.0313L30.3225 74.0061L28.4039 72.857L83.8894 18.3853L84.8959 20.0313Z" fill="#E31E24"/>
<path fill-rule="evenodd" clip-rule="evenodd" d="M86.688 23.6334L33.9078 75.807L31.8947 74.7822L85.7758 21.7701L86.688 23.6334Z" fill="#E31E24"/>
<path fill-rule="evenodd" clip-rule="evenodd" d="M88.1341 27.4841L37.8386 77.2355L35.5111 76.49L87.4422 25.5275L88.1341 27.4841Z" fill="#E31E24"/>
<path fill-rule="evenodd" clip-rule="evenodd" d="M89.2359 31.6458L42.0544 78.3225L39.5695 77.7634L88.7326 29.5028L89.2359 31.6458Z" fill="#E31E24"/>
<path fill-rule="evenodd" clip-rule="evenodd" d="M89.8952 36.3045L46.7399 78.975L44.0033 78.6645L89.675 33.8822L89.8952 36.3045Z" fill="#E31E24"/>
<path fill-rule="evenodd" clip-rule="evenodd" d="M90.0531 39.5341C90.0531 61.3972 72.1242 79.0991 50.0119 79.0991L90.0531 39.5341Z" fill="#E31E24"/>
</svg>
